<?xml version="1.0" encoding="UTF-8" standalone="no"?>
<!--
PayPal Logo PDF to SVG conversion by Ryan Olbe (http://www.rolbe.com)
Original PDF can be found here:
https://www.paypal-marketing.com/paypal/html/partner/portal/pdf/PP_IntegrationRequirementsForPartnersUS_090722.pdf

Other Resources:
Design mistakes 101: What happened to Paypal's logo?
http://www.cheb.com.au/design-mistakes-101-paypal-redesign-what-happened/

Review: PayPal Redesign
http://www.webdesignerwall.com/general/review-paypal-redesign/

File:PayPal logo.svg
http://en.wikipedia.org/wiki/File:PayPal_logo.svg

PayPal Vector Logo Download
http://sharealogo.com/internet/paypal-vector-logo-download/
-->

<svg
   xmlns:dc="http://purl.org/dc/elements/1.1/"
   xmlns:cc="http://creativecommons.org/ns#"
   xmlns:rdf="http://www.w3.org/1999/02/22-rdf-syntax-ns#"
   xmlns:svg="http://www.w3.org/2000/svg"
   xmlns="http://www.w3.org/2000/svg"
   xmlns:sodipodi="http://sodipodi.sourceforge.net/DTD/sodipodi-0.dtd"
   xmlns:inkscape="http://www.inkscape.org/namespaces/inkscape"
   version="1.1"
   id="svg2"
   inkscape:version="0.48.3.1 r9886"
   width="193.7"
   height="193.7"
   sodipodi:docname="logo_paypal.svg"
   inkscape:export-filename="/home/erik/projekt/Biljetter/res/drawable-hdpi/donate_paypal.png"
   inkscape:export-xdpi="50.18"
   inkscape:export-ydpi="50.18">
  <metadata
     id="metadata24">
    <rdf:RDF>
      <cc:Work
         rdf:about="">
        <dc:format>image/svg+xml</dc:format>
        <dc:type
           rdf:resource="http://purl.org/dc/dcmitype/StillImage" />
        <dc:title></dc:title>
      </cc:Work>
    </rdf:RDF>
  </metadata>
  <defs
     id="defs22" />
  <sodipodi:namedview
     pagecolor="#ffffff"
     bordercolor="#666666"
     borderopacity="1"
     objecttolerance="10"
     gridtolerance="10"
     guidetolerance="10"
     inkscape:pageopacity="0"
     inkscape:pageshadow="2"
     inkscape:window-width="1920"
     inkscape:window-height="1056"
     id="namedview20"
     showgrid="false"
     fit-margin-top="0"
     fit-margin-left="0"
     fit-margin-right="0"
     fit-margin-bottom="0"
     inkscape:zoom="0.63429569"
     inkscape:cx="473.32937"
     inkscape:cy="-81.700743"
     inkscape:window-x="0"
     inkscape:window-y="24"
     inkscape:window-maximized="1"
     inkscape:current-layer="svg2" />
  <!-- P -->
  <!-- #1B3664 -->
  <!-- a -->
  <!-- #1B3664 -->
  <!-- y -->
  <!-- #1B3664 -->
  <!-- P -->
  <!-- #336697 -->
  <!-- a -->
  <!-- #336697 -->
  <!-- l -->
  <!-- #336697 -->
  <g
     id="g3001"
     transform="translate(-0.00201152,-69.590502)">
    <path
       style="fill:#1a3665"
       inkscape:connector-curvature="0"
       id="path4"
       d="m 26.215021,157.025 c -1.784,1.303 -4.267,1.96 -7.472,1.96 h -1.471 c -1.276,0 -2.08,-1.019 -1.801,-2.26 l 1.785,-7.697 c 0.29,-1.24 1.563,-2.253 2.832,-2.253 h 1.944 c 2.267,0 3.983,0.385 5.136,1.155 1.151,0.762 1.728,1.935 1.728,3.525 0,2.408 -0.898,4.267 -2.681,5.57 m 12.799,-11.851 c -0.748,-1.427 -1.839,-2.592 -3.262,-3.481 -1.456,-0.902 -3.167,-1.528 -5.147,-1.896 -1.987,-0.363 -4.31,-0.546 -6.981,-0.546 h -12.367 c -1.277,0 -2.548,1.007 -2.838,2.252 l -8.36100004,36.259 c -0.287,1.245 0.519,2.26 1.79300004,2.26 h 5.938 c 1.273,0 2.549,-1.015 2.833,-2.258 l 2.035,-8.79 c 0.287,-1.236 1.559,-2.253 2.834,-2.253 h 1.695 c 7.239,0 12.872,-1.482 16.906,-4.457 4.032,-2.972 6.049,-6.884 6.049,-11.738 0,-2.135 -0.373,-3.917 -1.127,-5.352" />
    <path
       style="fill:#1a3665"
       inkscape:connector-curvature="0"
       id="path6"
       d="m 57.115021,172.008 c -0.968,0.694 -2,1.266 -3.096,1.715 -1.102,0.449 -2.125,0.675 -3.095,0.675 -1.466,0 -2.591,-0.218 -3.367,-0.646 -0.77,-0.424 -1.151,-1.166 -1.151,-2.224 0,-1.194 0.282,-2.167 0.865,-2.892 0.584,-0.721 1.431,-1.289 2.531,-1.694 1.077,-0.377 2.374,-0.673 3.898,-0.873 1.528,-0.198 3.166,-0.371 4.906,-0.517 l -1.491,6.456 m -1.854,8.014 h 7.447 c 1.271,0 2.548,-1.015 2.836,-2.258 l 4.314,-18.668 c 0.112,-0.442 0.202,-0.951 0.252,-1.54 0.066,-0.582 0.103,-1.056 0.103,-1.416 0,-2.653 -1.129,-4.603 -3.378,-5.863 -2.247,-1.264 -5.774,-1.89 -10.579,-1.89 -2.385,0 -4.776,0.183 -7.171,0.552 -2.41,0.369 -4.183,0.702 -5.32,0.994 l -1.009,5.089 c -0.245,1.246 -0.039,2.271 0.461,2.271 0.975,-0.358 2.435,-0.817 4.387,-1.363 1.957,-0.55 3.738,-0.827 5.351,-0.827 2.382,0 4.166,0.257 5.371,0.767 1.198,0.517 1.8,1.408 1.8,2.679 0,0.304 -0.042,0.584 -0.089,0.833 -0.068,0.256 -0.113,0.435 -0.132,0.548 -3.394,0.198 -6.545,0.506 -9.467,0.929 -2.91,0.419 -5.416,1.109 -7.527,2.054 -2.245,1.013 -3.942,2.357 -5.091,4.047 -1.149,1.692 -1.724,3.749 -1.724,6.178 0,2.306 0.811,4.179 2.43,5.608 1.61,1.433 3.693,2.155 6.238,2.155 1.582,0 2.822,-0.119 3.717,-0.339 0.892,-0.227 1.848,-0.546 2.861,-0.978 0.748,-0.328 1.565,-0.783 2.442,-1.363 0.868,-0.576 1.621,-1.066 2.231,-1.48 l -0.754,3.281" />
    <path
       style="fill:#1a3665"
       inkscape:connector-curvature="0"
       id="path8"
       d="m 100.36102,148.344 c -1.266999,0 -2.946999,1.02 -3.712999,2.258 l -10.479,17.966 -2.873,-17.937 c -0.286,-1.245 -1.563,-2.26 -2.837,-2.26 h -5.289 c -1.275,0 -2.086,1.015 -1.792,2.26 l 4.582,29.624 c 0.083,0.642 0.167,1.186 0.246,1.637 l -5.705,9.55 c -0.764,1.241 -0.356,2.258 0.922,2.258 h 6.134 c 1.276,0 2.94,-1.017 3.707,-2.258 l 25.550999,-43.098 h -8.454" />
    <path
       style="fill:#32689a"
       inkscape:connector-curvature="0"
       id="path10"
       d="m 130.76802,156.963 c -1.786,1.299 -4.268,1.954 -7.476,1.954 h -1.469 c -1.277,0 -2.082,-1.017 -1.794,-2.258 l 1.778,-7.697 c 0.286,-1.236 1.56,-2.252 2.833,-2.252 h 1.939 c 2.271,0 3.983,0.384 5.138,1.154 1.154,0.76 1.727,1.935 1.727,3.517 0,2.416 -0.891,4.275 -2.676,5.582 m 12.798,-11.855 c -0.744,-1.427 -1.842,-2.594 -3.265,-3.485 -1.452,-0.902 -3.164,-1.526 -5.145,-1.892 -1.983,-0.362 -4.308,-0.55 -6.98,-0.55 h -12.369 c -1.279,0 -2.549,1.011 -2.831,2.256 l -8.366,36.259 c -0.29,1.243 0.52,2.256 1.788,2.256 h 5.939 c 1.275,0 2.546,-1.013 2.838,-2.256 l 2.031,-8.788 c 0.284,-1.236 1.563,-2.257 2.83,-2.257 h 1.703 c 7.239,0 12.871,-1.48 16.908,-4.454 4.028,-2.977 6.043,-6.887 6.043,-11.737 0,-2.139 -0.373,-3.917 -1.124,-5.352" />
    <path
       style="fill:#32689a"
       inkscape:connector-curvature="0"
       id="path12"
       d="m 161.66702,171.94 c -0.961,0.696 -2.001,1.266 -3.097,1.715 -1.096,0.449 -2.127,0.677 -3.089,0.677 -1.475,0 -2.601,-0.214 -3.372,-0.648 -0.768,-0.422 -1.157,-1.163 -1.157,-2.219 0,-1.197 0.286,-2.166 0.876,-2.897 0.576,-0.723 1.428,-1.287 2.521,-1.69 1.078,-0.383 2.374,-0.671 3.9,-0.877 1.529,-0.196 3.165,-0.367 4.914,-0.517 l -1.496,6.456 m -1.859,8.012 h 7.449 c 1.272,0 2.551,-1.013 2.835,-2.256 l 4.319,-18.668 c 0.107,-0.44 0.194,-0.949 0.251,-1.54 0.064,-0.584 0.104,-1.058 0.104,-1.416 0,-2.653 -1.131,-4.605 -3.378,-5.861 -2.255,-1.262 -5.769,-1.89 -10.574,-1.89 -2.392,0 -4.783,0.182 -7.177,0.55 -2.405,0.371 -4.176,0.702 -5.325,0.994 l -1.005,5.091 c -0.245,1.248 -0.039,2.271 0.459,2.271 0.972,-0.36 2.436,-0.813 4.386,-1.365 1.961,-0.549 3.743,-0.825 5.352,-0.825 2.384,0 4.173,0.257 5.37,0.766 1.195,0.518 1.8,1.408 1.8,2.676 0,0.304 -0.04,0.588 -0.089,0.84 -0.065,0.247 -0.11,0.432 -0.131,0.543 -3.392,0.2 -6.549,0.509 -9.471,0.931 -2.904,0.419 -5.413,1.105 -7.522,2.054 -2.245,1.011 -3.944,2.353 -5.09,4.045 -1.142,1.693 -1.717,3.749 -1.717,6.18 0,2.302 0.806,4.177 2.419,5.608 1.612,1.435 3.697,2.149 6.242,2.149 1.583,0 2.821,-0.113 3.717,-0.333 0.89,-0.225 1.851,-0.552 2.863,-0.976 0.746,-0.331 1.564,-0.788 2.437,-1.365 0.869,-0.572 1.622,-1.07 2.24,-1.479 l -0.764,3.276" />
    <path
       style="fill:#32689a"
       inkscape:connector-curvature="0"
       id="path14"
       d="m 193.70402,139.508 -8.458,38.194 c -0.286,1.24 -1.569,2.257 -2.838,2.257 h -5.293 c -1.27,0 -2.082,-1.017 -1.792,-2.257 l 7.94,-35.941 c 0.286,-1.24 1.565,-2.253 2.836,-2.253 h 7.605" />
  </g>
  <!-- T -->
  <!-- #1B3664 -->
  <!-- M -->
  <!-- #1B3664 -->
</svg>
